# xmcd
#
# Track frame offsets:
# 150
# 22426
# 38979
# 49823
# 64321
# 84496
# 95690
# 111933
# 115857
# 131663
#
# Disc length: 1979 seconds
#
#
# Revision: 0
# Processed by: cddbd v1.5PL3 Copyright (c) Steve Scherf et al.
# Submitted via: FreeRIP 2.53 
#
DISCID=9207b90a
DTITLE=Keith, Toby - Boomtown
DYEAR=1900
DGENRE=Country
TTITLE0=Who's That Man
TTITLE1=Big Ol' Truck
TTITLE2=Victoria's Secret
TTITLE3=No Honor Among Thieves
TTITLE4=Upstairs Downtown
TTITLE5=You Ain't Much Fun
TTITLE6=In Other Words
TTITLE7=Woman Behind The Man
TTITLE8=Life Was A Play(The World A Stage)
TTITLE9=Boomtown
EXTD=
EXTT0=
EXTT1=
EXTT2=
EXTT3=
EXTT4=
EXTT5=
EXTT6=
EXTT7=
EXTT8=
EXTT9=
PLAYORDER=
